<?xml version="1.0" encoding="UTF-8"?>
<svg id="_Слой_1" data-name="Слой 1" xmlns="http://www.w3.org/2000/svg" viewBox="0 0 1469.16 1068.57">
  <defs>
    <style>
      .cls-1 {
        fill: none;
        stroke: #fff;
        stroke-miterlimit: 10;
        stroke-width: 30px;
      }

      .cls-2 {
        fill: #fff;
        stroke-width: 0px;
      }
    </style>
  </defs>
  <g id="Objects">
    <g>
      <path class="cls-1" d="m1410.83,546.12l25.08,153.46-146.3-22.82c-59.46,38.94-131.13,61.67-208.27,61.67-14.22,0-28.24-.77-42.05-2.28,18.74-53.71,28.89-111.24,28.89-171.08,0-186.61-98.78-350.82-248.38-446.11,67.29-64.29,159.64-103.95,261.53-103.95,205.9,0,372.82,161.94,372.82,361.71,0,61.2-15.68,118.86-43.33,169.4Z"/>
      <path class="cls-1" d="m73.52,793.85l-33.89,207.26,197.59-30.81c80.31,52.58,177.1,83.28,281.28,83.28,278.08,0,503.5-218.71,503.5-488.51S796.58,76.56,518.5,76.56,15,295.27,15,565.06c0,82.66,21.16,160.53,58.52,228.78Z"/>
      <g>
        <path class="cls-2" d="m541.7,709.12h-44.17c-10.29,0-18.23-9.09-16.82-19.29,7.56-54.95,46.47-94.11,81.23-129.07,37.13-37.36,69.2-69.62,69.2-116.53,0-62.33-50.71-113.03-113.03-113.03-57.28,0-104.76,42.84-112.06,98.16-1.12,8.49-8.28,14.88-16.84,14.88h-43.73c-10,0-17.87-8.6-16.91-18.55,9.36-96.33,90.79-171.88,189.53-171.88,105,0,190.43,85.43,190.43,190.43,0,35.94-10.4,69.25-31.8,101.85-17.33,26.41-38.98,48.18-59.91,69.24-27.84,28.02-52.41,52.73-58.56,80.49-1.72,7.77-8.6,13.31-16.56,13.31Z"/>
        <circle class="cls-2" cx="518.09" cy="825.13" r="51.2"/>
      </g>
    </g>
  </g>
</svg>