<?xml version="1.0" encoding="UTF-8"?>
<svg id="_Слой_1" data-name="Слой 1" xmlns="http://www.w3.org/2000/svg" viewBox="0 0 2044.86 534.99">
  <defs>
    <style>
      .cls-1 {
        stroke-width: 0px;
      }

      .cls-1, .cls-2 {
        fill: #fff;
      }

      .cls-2 {
        font-family: JOURNALISM, JOURNALISM;
        font-size: 450px;
      }
    </style>
  </defs>
  <g>
    <path class="cls-1" d="m467.51,297.73c-.6-62.34-27.65-121.19-71.96-164.62-31.07-30.45-76.98-54.93-120.17-61.54-2.85-6.07-40.44-70.7-41.43-71.57l-20.72,35.88c-6.86,11.99-13.58,24.1-20.6,36-1.79.28-3.59.58-5.37.9-1.79.32-3.57.67-5.35,1.03-1.78.37-3.55.76-5.32,1.17-1.77.41-3.53.84-5.29,1.29-1.76.45-3.51.93-5.26,1.42-1.75.5-3.49,1.01-5.22,1.55-1.74.54-3.46,1.1-5.18,1.68-1.72.58-3.43,1.18-5.14,1.81-1.71.62-3.41,1.27-5.1,1.93-1.69.66-3.37,1.35-5.05,2.05s-3.34,1.43-4.99,2.18c-1.66.75-3.3,1.51-4.94,2.3s-3.27,1.59-4.88,2.42c-1.62.83-3.22,1.67-4.82,2.54-1.6.87-3.18,1.75-4.76,2.65-1.58.9-3.14,1.83-4.69,2.77-1.55.94-3.09,1.9-4.62,2.88-1.53.98-3.05,1.98-4.55,3-1.51,1.02-3,2.05-4.48,3.11-1.48,1.05-2.95,2.13-4.4,3.22-1.45,1.09-2.89,2.2-4.32,3.32-1.43,1.13-2.84,2.27-4.24,3.43-1.4,1.16-2.78,2.34-4.15,3.53-1.37,1.19-2.72,2.4-4.07,3.63-1.34,1.23-2.66,2.47-3.97,3.73-1.31,1.26-2.6,2.53-3.88,3.82s-2.54,2.6-3.79,3.92c-1.25,1.32-2.48,2.66-3.69,4.01-1.21,1.35-2.41,2.72-3.59,4.1-1.18,1.38-2.34,2.78-3.49,4.19-1.15,1.41-2.28,2.83-3.39,4.27-1.11,1.44-2.21,2.89-3.28,4.35C8.67,212.45-6.97,274.18,2.86,338.62c.29,1.86.6,3.72.93,5.57s.69,3.7,1.06,5.54c.38,1.84.78,3.68,1.2,5.52.42,1.83.87,3.66,1.34,5.48.47,1.82.96,3.64,1.47,5.45.51,1.81,1.05,3.61,1.6,5.41.56,1.8,1.13,3.59,1.74,5.37.6,1.78,1.22,3.56,1.87,5.33.64,1.77,1.31,3.53,2,5.28.69,1.75,1.4,3.49,2.13,5.23.73,1.73,1.48,3.46,2.25,5.17.77,1.72,1.57,3.42,2.38,5.12.81,1.7,1.65,3.38,2.5,5.06.86,1.68,1.73,3.34,2.63,4.99.9,1.65,1.81,3.3,2.75,4.93.94,1.63,1.89,3.25,2.87,4.86.98,1.61,1.97,3.2,2.99,4.79,1.02,1.58,2.05,3.16,3.1,4.71,1.05,1.56,2.13,3.1,3.22,4.64,1.09,1.53,2.2,3.05,3.33,4.55,1.13,1.5,2.28,3,3.44,4.47s2.35,2.94,3.55,4.39c1.2,1.45,2.42,2.88,3.66,4.3,1.24,1.42,2.49,2.82,3.76,4.21,1.27,1.39,2.56,2.76,3.87,4.11,1.31,1.36,2.63,2.69,3.96,4.02,1.34,1.32,2.69,2.63,4.06,3.92,1.37,1.29,2.76,2.56,4.16,3.82,1.4,1.26,2.82,2.49,4.25,3.71,1.43,1.22,2.88,2.42,4.34,3.61,1.46,1.19,2.94,2.35,4.43,3.5,1.49,1.15,2.99,2.28,4.51,3.39,1.26.92,2.52,1.82,3.8,2.71,1.27.89,2.56,1.77,3.85,2.64,1.29.87,2.59,1.72,3.9,2.56,1.31.84,2.62,1.67,3.95,2.49,1.32.82,2.66,1.62,4,2.41,1.34.79,2.69,1.57,4.04,2.33,1.36.76,2.72,1.51,4.09,2.25,1.37.74,2.75,1.46,4.13,2.17,1.38.71,2.77,1.41,4.17,2.09,1.4.68,2.8,1.35,4.21,2.01,1.41.66,2.83,1.3,4.25,1.93,1.42.63,2.85,1.24,4.29,1.84,1.44.6,2.88,1.19,4.32,1.76,1.45.57,2.9,1.13,4.36,1.67s2.92,1.07,4.39,1.59c1.47.51,2.94,1.02,4.42,1.5,1.48.49,2.96.96,4.45,1.42,1.49.46,2.98.9,4.47,1.33,1.5.43,2.99.84,4.5,1.24,1.5.4,3.01.78,4.52,1.15,1.51.37,3.03.72,4.54,1.06,1.52.34,3.04.67,4.56.97,1.52.31,3.05.61,4.58.89,1.53.28,3.06.55,4.6.8,1.54.25,3.07.49,4.61.71,1.54.22,3.08.43,4.63.62s3.09.37,4.64.53c1.55.16,3.1.3,4.65.43,1.55.13,3.1.25,4.65.34,1.55.1,3.1.18,4.66.25s3.11.12,4.66.16c1.56.04,3.11.06,4.67.07,63.16-.39,121.78-24.18,166.25-69.32,1.37-1.37,2.71-2.76,4.04-4.17,1.33-1.41,2.64-2.83,3.94-4.27,1.3-1.44,2.57-2.9,3.83-4.37s2.5-2.96,3.72-4.46c1.22-1.5,2.42-3.02,3.61-4.55,1.18-1.53,2.35-3.08,3.49-4.64,1.14-1.56,2.27-3.14,3.38-4.73,1.11-1.59,2.19-3.19,3.26-4.81,1.07-1.62,2.11-3.25,3.14-4.89s2.03-3.3,3.01-4.97c.98-1.67,1.95-3.35,2.89-5.04.94-1.69,1.86-3.4,2.76-5.11.9-1.72,1.78-3.44,2.63-5.18.86-1.74,1.69-3.49,2.5-5.25.81-1.76,1.6-3.53,2.37-5.31.77-1.78,1.51-3.57,2.23-5.36.72-1.8,1.42-3.6,2.1-5.42.68-1.81,1.33-3.64,1.96-5.47.63-1.83,1.24-3.67,1.83-5.52.59-1.85,1.15-3.7,1.69-5.56.54-1.86,1.05-3.73,1.55-5.6.49-1.87.96-3.75,1.41-5.64.45-1.89.87-3.78,1.27-5.67.4-1.9.77-3.8,1.12-5.7.35-1.9.68-3.81.98-5.73s.58-3.83.84-5.75c.25-1.92.49-3.84.69-5.77.21-1.93.39-3.85.55-5.78.16-1.93.29-3.86.4-5.8.11-1.93.2-3.87.26-5.8.06-1.94.1-3.87.11-5.81.01-1.94,0-3.87-.03-5.81ZM190.23,92.27c2.19-2.61,4.7-5.16,6.43-8.1,5.6-9.55,10.8-19.36,16.24-29,6.86-11.98,13.85-23.88,20.97-35.71.12.05.26.08.37.16,1.52,1.21,3.97,6.12,5.07,7.95,7.36,12.31,14.53,24.73,21.51,37.26,3.46,6.15,6.7,12.48,10.34,18.53,1.51,2.5,3.52,4.76,5.32,7.04,3.5,4.44,6.75,8.97,9.18,14.1.82,1.72,1.54,3.47,2.18,5.26.64,1.79,1.18,3.61,1.63,5.46.45,1.85.8,3.71,1.06,5.6.26,1.88.42,3.78.49,5.68.04,1,.06,2.01.05,3.01,0,1.01-.04,2.01-.09,3.01-.06,1-.14,2.01-.25,3.01-.11,1-.24,2-.39,2.99-.16.99-.34,1.98-.54,2.97-.21.98-.43,1.96-.69,2.94-.25.97-.53,1.94-.84,2.9-.3.96-.63,1.91-.98,2.85-.35.94-.72,1.88-1.12,2.8-.4.92-.81,1.84-1.26,2.74-.44.9-.9,1.8-1.39,2.68-.49.88-.99,1.75-1.52,2.6-.53.86-1.08,1.7-1.65,2.52-.57.83-1.16,1.64-1.77,2.44-.61.8-1.24,1.58-1.89,2.35-.65.77-1.32,1.52-2.01,2.25-10.45,11.11-25.22,17.06-40.36,17.46-10.15.02-20.69-2.92-29.39-8.11-.81-.49-1.61-1.01-2.4-1.54-.79-.53-1.56-1.08-2.32-1.65-.76-.57-1.51-1.16-2.24-1.76-.73-.61-1.45-1.23-2.15-1.87-.7-.64-1.39-1.3-2.06-1.97-.67-.67-1.32-1.36-1.96-2.07-.64-.71-1.26-1.43-1.86-2.16-.6-.74-1.19-1.48-1.75-2.25-.57-.76-1.11-1.54-1.64-2.33-.53-.79-1.04-1.59-1.53-2.41-.49-.81-.96-1.64-1.41-2.48-.45-.84-.88-1.69-1.29-2.54-.41-.86-.8-1.73-1.16-2.6-.37-.88-.71-1.76-1.03-2.66-.32-.89-.62-1.79-.9-2.7-.28-.91-.54-1.82-.77-2.74-2.73-11.05-2.52-22.57,1.19-33.39,2.36-6.89,5.91-12.97,10.59-18.53Zm-23.04,195.07v79.42c-7.27.89-14.17,2.67-21.14,4.91-4.99,1.99-9.61,3.93-14.35,6.48,20.19-50.9,20.24-99.82,1.31-151.17,3.56,1.3,6.92,3.28,10.44,4.72,7.67,3.14,15.45,4.85,23.59,6.22.19,6.07.05,12.18.06,18.26l.09,31.17Zm-32.25-16.56c7.47,48.01-2.44,94.1-28.17,135.28-3.42,5.47-7.33,10.64-11.13,15.85-.55-.81-1.14-1.6-1.71-2.4-25.13-30.8-39.41-65.56-42.49-105.24-.73-9.37-.37-18.66.41-28.01,3.38-40.38,19.55-75.93,45.8-106.57.08.06.18.1.25.17,1.88,1.53,5.34,8.01,6.71,10.26,1.91,3.07,3.74,6.19,5.49,9.35,1.75,3.16,3.43,6.36,5.03,9.6,1.6,3.24,3.11,6.52,4.55,9.84,1.44,3.32,2.79,6.67,4.06,10.05,1.27,3.38,2.46,6.8,3.57,10.24,1.11,3.44,2.13,6.91,3.06,10.4.94,3.49,1.78,7,2.55,10.54.76,3.53,1.44,7.08,2.03,10.65Zm-24.49,147.11c3.23-4.97,6.49-9.96,9.47-15.08,1.45-2.5,2.45-5.47,4.24-7.73,4.56-5.75,16.66-11.44,23.62-14.06,22.8-8.6,47.3-6.71,69.08,3.86,3.02,1.46,5.96,3.08,8.82,4.84,2.56,1.6,5.1,3.5,7.87,4.72.11.05.21.09.32.14,4.2-1.78,7.86-4.78,11.86-6.97,12.07-6.64,25.88-11.36,39.7-12.05,11.16-.36,21.49.43,32.21,3.93,7.75,2.53,21.03,8.25,26.03,14.84,1.75,2.31,3.01,5.13,4.43,7.65,2.17,3.82,4.46,7.57,6.87,11.24,3.29,4.98,7.89,9.53,10.58,14.83-5.47,7.34-19.53,19.07-27.39,23.93-13.89-12.02-28.38-22.49-45.2-30.07-.98-.43-1.97-.85-2.96-1.26-.99-.41-1.98-.81-2.98-1.2-1-.39-2-.77-3.01-1.13-1.01-.37-2.02-.72-3.03-1.07-1.01-.35-2.03-.68-3.05-1-1.02-.32-2.05-.64-3.07-.94-1.03-.3-2.06-.59-3.09-.87-1.03-.28-2.07-.55-3.11-.8-1.04-.26-2.08-.5-3.13-.73-1.05-.23-2.09-.46-3.14-.67-1.05-.21-2.1-.41-3.16-.6-1.05-.19-2.11-.37-3.17-.53s-2.12-.32-3.18-.46c-1.06-.14-2.13-.27-3.19-.39-1.06-.12-2.13-.23-3.2-.32-1.07-.1-2.14-.18-3.2-.26s-2.14-.14-3.21-.18c-1.07-.05-2.14-.09-3.21-.12-1.07-.03-2.14-.04-3.21-.05-1.07,0-2.14,0-3.21.02-1.07.02-2.14.05-3.21.09-1.07.04-2.14.1-3.21.16-1.07.07-2.14.14-3.21.23-1.07.09-2.13.19-3.2.3-1.07.11-2.13.24-3.19.37-1.06.13-2.12.28-3.18.44-1.06.16-2.12.33-3.17.51-1.06.18-2.11.37-3.16.58-1.05.2-2.1.42-3.15.65-1.05.23-2.09.46-3.13.71-1.04.25-2.08.51-3.12.78-1.04.27-2.07.55-3.1.85-5.37,1.5-10.58,3.51-15.79,5.48-16.84,6.86-34.84,18.38-47.72,31.22-3.67-3.05-7.63-5.81-11.36-8.79-5.36-4.35-10.43-9-15.23-13.96,3.19-3.2,5.68-7.27,8.14-11.05Zm65.07-179.89c22.79-1.06,34.67-7.23,54.03-18.15l.16.16c.75,2.28.24,18.96.25,22.67-9.75,1.69-17.88,3.86-25.91,9.95-9.54,7.23-15.53,18.38-17.05,30.16-1.66,12.82.88,26.25,8.92,36.59,8.27,10.63,20.71,16.91,33.95,18.53.02,7.46-.19,14.92-.21,22.38-.02,6.99.12,13.97-.09,20.97-2.24-.97-4.39-2.17-6.55-3.31-14.96-8.36-30.38-11.42-47.39-11.57-.49-14.59-.1-29.32-.06-43.92l-.06-84.44Zm115.75,38.98l.07,89.21c-16.99.09-32.55,4.43-47.54,12.27-1.78.99-3.61,1.91-5.41,2.86-.43-14.42-.24-28.85-.27-43.28,7.71-.77,15.64-3.13,22.24-7.24.69-.42,1.36-.85,2.02-1.3.66-.45,1.32-.92,1.96-1.4.64-.48,1.27-.98,1.89-1.5.62-.52,1.22-1.05,1.81-1.59.59-.55,1.16-1.11,1.73-1.68.56-.57,1.11-1.16,1.64-1.76.53-.6,1.05-1.22,1.55-1.84.5-.63.99-1.27,1.46-1.92.47-.65.92-1.32,1.36-1.99.44-.67.86-1.36,1.26-2.05.4-.69.79-1.4,1.15-2.11.37-.71.72-1.44,1.05-2.17.33-.73.64-1.47.94-2.22s.57-1.5.83-2.26c.26-.76.49-1.53.71-2.3.22-.77.42-1.55.6-2.33.16-.72.3-1.45.42-2.18.12-.73.23-1.46.32-2.19.09-.73.16-1.47.21-2.21.05-.74.09-1.48.1-2.21.02-.74.01-1.48,0-2.22-.02-.74-.06-1.48-.11-2.21-.06-.74-.13-1.47-.22-2.21-.09-.73-.2-1.46-.33-2.19-.13-.73-.27-1.45-.43-2.17-.16-.72-.34-1.44-.54-2.15-.2-.71-.41-1.42-.64-2.12-.23-.7-.48-1.4-.74-2.09-.26-.69-.55-1.37-.84-2.05-.3-.68-.61-1.35-.94-2.01-.33-.66-.68-1.31-1.04-1.96-.36-.64-.74-1.28-1.13-1.91-9.13-14.31-21.64-20.38-37.7-24-.68-7.43-.27-15.14-.25-22.61,19.84,12.34,29.31,15.93,52.71,18.58.41,12.89.09,25.83.15,38.73Zm-55.78,52.23c-.3-2.56,7.31-25.44,8.81-29.08,10.25-2.46,20.18-5.7,30.16-9.04.02.11.06.21.07.32.99,6.95-4.08,16.84-8.25,22.12-8.33,10.55-17.83,14.14-30.8,15.68Zm3.04-77.46c.59.08,1.18.17,1.77.27.59.1,1.17.21,1.76.34.58.13,1.16.26,1.74.41.58.15,1.15.31,1.72.48.57.17,1.14.36,1.7.56.56.2,1.12.41,1.68.63.56.22,1.11.45,1.65.7.54.24,1.08.5,1.62.76.53.27,1.06.54,1.59.83.52.29,1.04.59,1.55.9.51.31,1.02.63,1.51.96.5.33.99.67,1.47,1.02.48.35.96.71,1.43,1.08.47.37.93.75,1.38,1.14,8.08,6.93,12.44,16.18,13.29,26.69-10.04-3.34-20.07-6.4-30.33-8.97-2.31-5.98-4.12-12.29-6.07-18.4-1-3.15-2.39-6.47-3.03-9.7.6.03,1.19.07,1.79.12.59.05,1.19.12,1.78.19Zm-2.12,34.17c4.64,1.49,9.32,2.66,14.03,3.86-4.47,1.54-9.33,2.23-13.64,4.18-1.12,3.22-2.01,6.5-2.67,9.84l-.13.66-.38.03c-1.19-3.04-.94-6.72-2.62-9.57-1.97-3.34-9.16-4.09-12.83-5.1,4.32-.95,8.53-2.67,12.79-3.93,1.15-4.16,1.5-8.51,2.67-12.63,1.8,1.81,2.46,9.84,2.78,12.66Zm-4.03,43.5c-8.71-.31-18.98-4.91-25.26-10.87-8.16-7.74-11.65-17.68-11.89-28.72,9.11,3.97,18.88,7.21,28.26,10.5,2.55,9.8,6.59,19.22,8.89,29.1Zm-.52-76.6c-2.75,8.42-7.25,18-8.24,26.78-4.5,1.17-8.96,2.91-13.37,4.39-4.83,1.62-9.74,3.02-14.48,4.91l-.42-.46c-.49-7.84,4.24-18.05,9.27-23.91,7.09-8.26,16.63-12.26,27.36-13.07.36.49.07.8-.11,1.37Zm88.47,49.86c.01,1.27.04,2.55.08,3.82.04,1.27.09,2.55.16,3.82.07,1.27.14,2.54.23,3.82.09,1.27.19,2.54.31,3.81.12,1.27.25,2.54.39,3.8.14,1.27.3,2.53.46,3.8.17,1.26.35,2.53.54,3.79s.4,2.52.61,3.77c.22,1.26.45,2.51.69,3.76.24,1.25.5,2.5.76,3.75.27,1.25.55,2.49.84,3.73s.6,2.48.91,3.71c.32,1.24.65,2.47.99,3.69.34,1.23.69,2.45,1.06,3.67.37,1.22.74,2.44,1.13,3.65.39,1.21.79,2.42,1.21,3.63.41,1.21.84,2.41,1.28,3.6.44,1.2.89,2.39,1.35,3.58.46,1.19.94,2.37,1.42,3.55.49,1.18.98,2.35,1.49,3.52-4.7-2.02-9.4-4.03-14.19-5.82-7.16-2.4-14.4-3.67-21.82-4.94-.28-42.76-.29-85.53-.05-128.29,12.44-1.35,23.83-5.02,34.49-11.63.34.68-.14,1.48-.38,2.13-3.47,9.48-6.72,18.92-9.02,28.76-.29,1.24-.56,2.49-.83,3.73-.26,1.25-.51,2.5-.75,3.75-.24,1.25-.46,2.51-.68,3.76s-.41,2.52-.6,3.78c-.19,1.26-.36,2.52-.53,3.79-.16,1.26-.31,2.53-.45,3.8-.14,1.27-.26,2.54-.38,3.81-.11,1.27-.21,2.54-.3,3.81-.09,1.27-.16,2.54-.22,3.82-.06,1.27-.11,2.55-.15,3.82-.04,1.27-.06,2.55-.07,3.82s0,2.55,0,3.82Zm42.38,105.25c-17.29-26.24-30.3-59.84-32.53-91.33-2.09-29.56,2.11-56.12,12.52-83.8,3.39-9.01,7.02-17.62,11.51-26.14,4.2-7.97,10.98-19.4,16.78-26.09,3,3.06,5.68,6.59,8.29,9.99,2.06,2.74,4.03,5.53,5.94,8.38,1.9,2.85,3.72,5.74,5.47,8.69,1.74,2.95,3.4,5.94,4.98,8.98,1.58,3.04,3.07,6.12,4.47,9.24,1.41,3.12,2.72,6.28,3.96,9.47,1.23,3.19,2.37,6.42,3.42,9.68,1.05,3.26,2.01,6.54,2.89,9.85.87,3.31,1.65,6.64,2.34,10,1.09,5.2,2.16,10.42,2.64,15.72,1.39,15.42,1.53,31.2-.52,46.56-4.45,33.38-19.55,66.33-41.04,92.14-.47.53-.89.91-1.49,1.3-.34-.18-.39-.19-.73-.48-2.77-2.37-6.75-8.94-8.88-12.17Zm-13.67-210.54c-2.17,3.63-3.79,8.31-6.59,11.46-2.63,2.95-6.4,5.22-9.59,7.52-8.88,6.11-19.61,10.32-30.31,11.63-26.12,3.21-47.56-7.91-67.37-23.47-3.31,1.91-6.31,4.44-9.52,6.53-9.67,6.29-20.09,11.6-31.26,14.61-25.25,6.8-44.48.02-66.11-12.43-2.46-4.14-4.32-8.8-6.51-13.1-4.92-9.67-10.53-19.5-17.1-28.16,14.88-14.39,30.99-26.15,49.59-35.28,4.18-2.05,8.63-4.38,13.12-5.64.73.94.68,5.18.84,6.51.66,5.29,2.11,10.65,3.88,15.69,2.6,7.37,6.82,14.14,11.82,20.12,11.24,13.45,28.06,21.67,45.42,23.16,17.25,1.48,34.3-3.6,47.51-14.86,15.33-13.07,22.68-31.22,24.22-50.94,3.01,1.19,5.98,2.45,8.93,3.8,2.94,1.34,5.85,2.76,8.72,4.26,2.87,1.5,5.69,3.07,8.48,4.71,2.78,1.65,5.52,3.36,8.22,5.15,2.69,1.79,5.34,3.65,7.94,5.58,2.6,1.93,5.14,3.93,7.63,5.99,2.49,2.06,4.93,4.19,7.31,6.38,2.38,2.19,4.7,4.44,6.96,6.76-5.91,7.65-11.31,15.65-16.2,24Zm108.72,111.17c-.06,1.85-.14,3.69-.24,5.54-.1,1.84-.23,3.69-.37,5.53-.15,1.84-.32,3.68-.51,5.52-.19,1.84-.41,3.67-.64,5.5-.24,1.83-.5,3.66-.78,5.49s-.59,3.65-.91,5.47c-.33,1.82-.68,3.63-1.05,5.44-.37,1.81-.76,3.61-1.18,5.42-.42,1.8-.85,3.59-1.31,5.38-.46,1.79-.94,3.57-1.44,5.35-.5,1.78-1.03,3.55-1.57,5.31-.55,1.76-1.11,3.52-1.7,5.27-.59,1.75-1.2,3.49-1.83,5.23-.63,1.74-1.29,3.46-1.96,5.18-.67,1.72-1.37,3.43-2.09,5.13-.72,1.7-1.45,3.4-2.21,5.08-.76,1.69-1.54,3.36-2.33,5.03-.8,1.67-1.62,3.32-2.46,4.97-.84,1.65-1.7,3.28-2.58,4.91-.88,1.62-1.78,3.24-2.7,4.84-.77,1.34-1.56,2.66-2.36,3.98-.8,1.32-1.61,2.63-2.44,3.93-.83,1.3-1.67,2.6-2.52,3.88-.86,1.28-1.72,2.56-2.6,3.83-.88,1.27-1.78,2.52-2.68,3.77-.91,1.25-1.83,2.49-2.76,3.72-.93,1.23-1.88,2.45-2.84,3.66-.96,1.21-1.93,2.41-2.91,3.6s-1.98,2.37-2.99,3.54c-1.01,1.17-2.03,2.33-3.06,3.47-1.03,1.15-2.08,2.28-3.13,3.41-1.06,1.13-2.12,2.24-3.2,3.34-1.08,1.1-2.17,2.2-3.27,3.28-1.1,1.08-2.22,2.15-3.34,3.21-1.12,1.06-2.26,2.1-3.41,3.14-1.15,1.03-2.3,2.06-3.47,3.07-1.17,1.01-2.35,2.01-3.54,2.99-1.19.98-2.39,1.96-3.59,2.92-1.21.96-2.43,1.91-3.66,2.84s-2.47,1.86-3.71,2.77c-1.25.91-2.51,1.8-3.77,2.69-1.27.88-2.54,1.75-3.83,2.61-1.28.86-2.58,1.7-3.88,2.53-1.3.83-2.61,1.64-3.93,2.45-1.32.8-2.65,1.59-3.98,2.36-1.34.77-2.68,1.53-4.03,2.28-1.35.75-2.71,1.48-4.08,2.2-1.37.72-2.74,1.42-4.12,2.11-1.38.69-2.77,1.36-4.16,2.03-1.4.66-2.8,1.31-4.21,1.94-1.41.63-2.82,1.25-4.24,1.85-1.42.6-2.85,1.19-4.28,1.76-7.38,2.93-14.88,5.65-22.57,7.68-13.47,3.55-27.06,6.4-40.94,7.71-1.46.12-2.93.23-4.39.33-1.46.09-2.93.18-4.4.24-1.47.07-2.93.12-4.4.16-1.47.04-2.93.06-4.4.07-1.47.01-2.94,0-4.4-.01-1.47-.02-2.93-.05-4.4-.09-1.47-.05-2.93-.11-4.4-.18-1.47-.07-2.93-.16-4.39-.26-1.46-.1-2.93-.22-4.39-.35-1.46-.13-2.92-.27-4.38-.43-1.46-.16-2.92-.33-4.37-.52-1.46-.19-2.91-.38-4.36-.6-1.45-.21-2.9-.44-4.35-.68-1.45-.24-2.89-.5-4.34-.76s-2.88-.55-4.32-.85c-1.44-.3-2.87-.61-4.3-.93-1.43-.32-2.86-.66-4.28-1.01-1.42-.35-2.85-.72-4.26-1.09-1.42-.38-2.83-.77-4.24-1.17-1.41-.41-2.82-.82-4.22-1.26-1.4-.43-2.8-.88-4.19-1.34-1.39-.46-2.78-.93-4.17-1.42-1.38-.49-2.76-.98-4.14-1.5-1.38-.51-2.75-1.04-4.11-1.58-1.37-.54-2.73-1.09-4.08-1.65-1.35-.56-2.7-1.14-4.05-1.73-1.34-.59-2.68-1.19-4.01-1.81-1.33-.62-2.66-1.24-3.98-1.89-1.32-.64-2.63-1.29-3.94-1.96-1.31-.67-2.61-1.34-3.9-2.03-1.29-.69-2.58-1.39-3.86-2.11-1.28-.72-2.55-1.44-3.82-2.18-1.58-.92-3.14-1.87-4.69-2.83-1.55-.96-3.09-1.94-4.62-2.95-1.53-1-3.04-2.02-4.55-3.06-1.5-1.04-2.99-2.1-4.47-3.17-1.48-1.08-2.94-2.17-4.39-3.28-1.45-1.11-2.89-2.24-4.31-3.39-1.42-1.15-2.83-2.31-4.22-3.49-1.39-1.18-2.77-2.38-4.14-3.6-1.36-1.22-2.71-2.45-4.05-3.7-1.33-1.25-2.65-2.51-3.95-3.8-1.3-1.28-2.59-2.58-3.86-3.89-1.27-1.31-2.52-2.64-3.76-3.99-1.24-1.34-2.46-2.7-3.66-4.08-1.2-1.37-2.39-2.76-3.56-4.17-1.17-1.4-2.32-2.82-3.46-4.25-1.13-1.43-2.25-2.88-3.35-4.34-1.1-1.46-2.18-2.93-3.24-4.42-1.06-1.49-2.11-2.99-3.13-4.5-1.03-1.51-2.03-3.04-3.02-4.57-.99-1.54-1.96-3.09-2.9-4.65-.95-1.56-1.88-3.13-2.79-4.72-.91-1.58-1.8-3.18-2.67-4.79-.87-1.61-1.72-3.22-2.55-4.85-.83-1.63-1.64-3.26-2.43-4.91-.79-1.65-1.56-3.3-2.31-4.97-.75-1.67-1.48-3.34-2.19-5.02s-1.4-3.38-2.06-5.08c-.67-1.7-1.31-3.41-1.94-5.13-.62-1.72-1.23-3.44-1.81-5.17-.58-1.73-1.14-3.47-1.68-5.22-.54-1.75-1.06-3.5-1.55-5.26-.5-1.76-.97-3.52-1.42-5.29-.45-1.75-.87-3.51-1.28-5.27-.4-1.76-.79-3.53-1.15-5.3s-.7-3.55-1.02-5.33c-.32-1.78-.62-3.56-.89-5.35-.28-1.79-.53-3.58-.76-5.37-.23-1.79-.44-3.59-.63-5.39-.19-1.8-.36-3.6-.5-5.4-.15-1.8-.27-3.61-.37-5.41-.1-1.81-.18-3.61-.24-5.42-.06-1.81-.1-3.62-.11-5.42s0-3.62.02-5.42c.03-1.81.08-3.62.15-5.42.07-1.81.17-3.61.28-5.42.12-1.81.25-3.61.41-5.41.16-1.8.34-3.6.54-5.4.2-1.8.43-3.59.67-5.38.25-1.79.51-3.58.8-5.37s.6-3.57.93-5.34c.33-1.78.69-3.55,1.06-5.32.38-1.77.77-3.53,1.19-5.29.42-1.76.86-3.51,1.32-5.26.46-1.75.94-3.49,1.44-5.23.5-1.74,1.02-3.47,1.57-5.19.54-1.72,1.11-3.44,1.69-5.15.59-1.71,1.19-3.42,1.82-5.11.63-1.7,1.27-3.39,1.94-5.07.67-1.68,1.35-3.35,2.06-5.02s1.43-3.32,2.18-4.97c.75-1.65,1.51-3.28,2.3-4.91.79-1.63,1.59-3.25,2.42-4.86.83-1.61,1.67-3.21,2.54-4.8.86-1.59,1.75-3.17,2.65-4.73,27.58-46.91,67.81-82.26,119.61-99.96,8.43-2.88,17.2-4.36,25.8-6.6l.25.05c.18.67-2.11,2.72-2.68,3.4-8.09,9.61-12.68,21.82-14.99,34.04-9.67,3.98-19.1,8.12-28.24,13.25-20.23,11.34-39.02,27.33-53.58,45.36-1.02,1.25-2.03,2.5-3.03,3.78-.99,1.27-1.97,2.55-2.93,3.85-.96,1.3-1.91,2.6-2.83,3.92-.93,1.32-1.84,2.65-2.74,3.99-.89,1.34-1.77,2.7-2.63,4.06-.86,1.36-1.71,2.74-2.53,4.12-.83,1.39-1.64,2.78-2.43,4.19-.79,1.41-1.57,2.82-2.32,4.25-.76,1.43-1.5,2.86-2.22,4.3-.72,1.44-1.42,2.9-2.11,4.36-.68,1.46-1.35,2.93-2,4.41-.65,1.48-1.28,2.96-1.89,4.46-.61,1.49-1.2,2.99-1.77,4.5-.57,1.51-1.13,3.02-1.66,4.55-.53,1.52-1.05,3.05-1.55,4.58-.5,1.54-.97,3.08-1.43,4.62-.46,1.55-.9,3.1-1.32,4.66-.42,1.56-.82,3.12-1.2,4.69-.38,1.57-.74,3.14-1.08,4.72-.34,1.58-.66,3.16-.96,4.74-.3,1.59-.58,3.17-.84,4.77-.26,1.59-.5,3.19-.72,4.79-.22,1.6-.42,3.2-.6,4.8-.18,1.6-.34,3.21-.48,4.82-.14,1.61-.26,3.22-.36,4.83-.1,1.61-.18,3.22-.24,4.83-.06,1.61-.1,3.23-.12,4.84-.02,1.61-.02,3.23,0,4.84.02,1.61.06,3.23.12,4.84.06,1.61.14,3.22.24,4.83.1,1.61.22,3.22.36,4.83.14,1.61.3,3.21.49,4.82,5.26,49.12,31.51,96.34,69.91,127.3,7.42,5.99,15.57,11.41,23.74,16.3,1.5.9,3.23,2.18,4.86,2.79.44.17.9.27,1.37.33.47.05.94.05,1.41-.02,1.41-.2,2.78-.97,3.62-2.12.6-.81.87-1.78.68-2.77-.73-3.71-8.28-6.35-11.24-8.51.58-.69,1.2-1.36,1.84-1.99,3.85-3.73,8.46-6.91,12.8-10.02,24.18-17.3,52.62-27.1,82.54-26.77,34.04.37,71.29,14.31,95.26,38.98-2.82,2.09-8.25,3.93-9.89,7-.45.85-.58,1.79-.26,2.71.47,1.38,1.84,2.75,3.19,3.3,1.44.6,2.78.18,4.14-.44,4.45-2.04,8.78-5.27,12.91-7.92,33.23-21.33,59.71-54.93,73.55-91.82,2.8-7.46,5.38-14.99,7.3-22.74,1.64-6.6,2.66-13.28,3.56-20.01,5.05-37.57-.93-73.64-16.61-108.04-20.77-45.58-60.95-81.11-107.6-98.58-1.99-14.63-7.61-26.78-17.1-38.04,12.18,2.8,24.07,6.26,35.63,11.05,8.1,3.22,15.93,7.01,23.49,11.35,7,4.03,14.05,8.11,20.63,12.79,42.01,29.86,74.26,74.77,87.56,124.72.48,1.78.94,3.57,1.38,5.37.44,1.79.85,3.59,1.24,5.4.39,1.81.76,3.62,1.11,5.43.35,1.81.67,3.63.98,5.46.3,1.82.59,3.65.85,5.48.26,1.83.49,3.66.71,5.5.21,1.84.41,3.67.58,5.51.17,1.84.32,3.68.44,5.52.12,1.84.23,3.69.3,5.53.08,1.85.13,3.69.17,5.54.03,1.85.05,3.69.03,5.54-.01,1.85-.05,3.69-.1,5.54Z"/>
    <path class="cls-1" d="m188.13,134.48c.08.78.18,1.55.3,2.32.12.77.26,1.54.42,2.3.16.76.34,1.52.54,2.28.2.75.42,1.5.65,2.25.24.74.49,1.48.77,2.21.27.73.57,1.45.88,2.17.31.72.64,1.42.98,2.12.35.7.71,1.39,1.09,2.07.38.68.78,1.35,1.19,2.01.42.66.85,1.31,1.29,1.95.45.64.91,1.27,1.39,1.88.48.62.98,1.22,1.48,1.81.51.59,1.04,1.17,1.58,1.73.54.56,1.09,1.11,1.66,1.65.57.54,1.15,1.06,1.74,1.56.59.51,1.2,1,1.82,1.47,9.34,7.28,19.86,10.22,31.64,9.41.02,0,.04,0,.06,0,12.32-1.25,23.13-6.76,31.02-16.36.51-.61,1-1.23,1.47-1.86.48-.63.93-1.28,1.38-1.93.44-.65.87-1.32,1.28-2,.41-.68.8-1.36,1.18-2.06.38-.7.74-1.4,1.08-2.11.34-.71.67-1.43.97-2.16.31-.73.59-1.47.86-2.21.27-.74.52-1.49.75-2.25.23-.76.45-1.52.64-2.28.19-.77.37-1.54.53-2.31.16-.77.29-1.55.41-2.33.12-.78.22-1.57.3-2.35.08-.79.14-1.58.18-2.36.04-.79.06-1.58.06-2.37,0-.79-.02-1.58-.06-2.37-.04-.79-.1-1.58-.17-2.36-1.29-12.03-6.73-22.84-16.2-30.44-.58-.47-1.18-.93-1.78-1.37-.6-.44-1.22-.87-1.84-1.29-.63-.41-1.26-.81-1.9-1.2-.64-.38-1.3-.75-1.96-1.1-.66-.35-1.33-.69-2.01-1.01-.68-.32-1.36-.62-2.05-.91-.69-.29-1.39-.56-2.1-.81-.71-.25-1.42-.49-2.13-.71-.72-.22-1.44-.42-2.16-.6-.73-.18-1.46-.35-2.19-.5-.73-.15-1.47-.28-2.21-.39-.74-.11-1.48-.21-2.23-.29-.75-.08-1.49-.14-2.24-.18-.75-.04-1.5-.07-2.25-.07-.75,0-1.5,0-2.25.04-.75.03-1.5.08-2.24.14-12.36,1.39-23.95,7.28-31.79,17.03-.47.6-.93,1.2-1.37,1.82s-.87,1.25-1.28,1.89c-.41.64-.81,1.29-1.18,1.95-.38.66-.74,1.33-1.09,2-.35.68-.68,1.36-.99,2.05-.31.69-.61,1.39-.89,2.1-.28.71-.54,1.42-.79,2.14-.24.72-.47,1.44-.68,2.17-.21.73-.4,1.46-.58,2.2-.17.74-.33,1.48-.47,2.23s-.26,1.5-.36,2.25c-.1.75-.19,1.51-.25,2.26-.07.76-.11,1.51-.14,2.27-.03.76-.04,1.52-.03,2.28,0,.76.04,1.52.08,2.28.05.76.11,1.51.19,2.27Zm9.16-7.5c.04-.61.1-1.22.18-1.83.07-.61.16-1.22.27-1.82.1-.6.22-1.21.36-1.8.13-.6.28-1.19.45-1.78.16-.59.34-1.18.54-1.76.19-.58.4-1.16.62-1.73.22-.57.46-1.14.71-1.7.25-.56.51-1.11.79-1.66.28-.55.57-1.09.87-1.62.3-.53.62-1.06.95-1.57s.67-1.02,1.03-1.52c.36-.5.72-.99,1.1-1.47.38-.48.77-.95,1.18-1.41,6.67-7.75,16.19-12.02,26.32-12.8,9.37.07,18.69,2.97,25.78,9.3.45.41.88.82,1.31,1.25.43.43.84.86,1.24,1.31.4.45.8.91,1.18,1.37.38.47.75.94,1.11,1.43.36.49.7.98,1.04,1.48.33.5.65,1.01.96,1.53.31.52.6,1.05.88,1.58.28.53.55,1.07.8,1.62.25.55.49,1.1.72,1.66.23.56.44,1.12.64,1.69.2.57.38,1.14.55,1.72.17.58.32,1.16.46,1.75s.27,1.18.38,1.77c.11.59.21,1.19.29,1.79.08.6.15,1.2.2,1.8.05.6.09,1.2.11,1.81.44,10.17-3.13,19.65-10.06,27.1-6.6,7.1-15.49,11.56-25.25,11.91-8.81.03-17.66-2.76-24.45-8.43-.47-.39-.93-.8-1.38-1.22-.45-.42-.89-.84-1.32-1.28-.43-.44-.85-.89-1.26-1.35-.41-.46-.8-.93-1.19-1.41-.38-.48-.76-.97-1.12-1.46-.36-.5-.71-1-1.04-1.52-.34-.51-.66-1.04-.97-1.57-.31-.53-.61-1.07-.89-1.61-.28-.54-.55-1.1-.81-1.65-.26-.56-.5-1.12-.73-1.69-.23-.57-.44-1.15-.64-1.73-.2-.58-.39-1.17-.56-1.76-.17-.59-.33-1.18-.47-1.78-.14-.6-.27-1.2-.38-1.8s-.21-1.21-.29-1.82c-.08-.61-.15-1.22-.2-1.83-.05-.61-.08-1.22-.1-1.84-.02-.61-.02-1.23,0-1.84.01-.61.04-1.23.09-1.84Z"/>
    <path class="cls-1" d="m311.59,473.42c-.04-.17-.1-.34-.16-.5-.06-.17-.13-.33-.21-.49-.08-.16-.16-.31-.26-.46-.75-1.2-2.17-2.26-3.59-2.46-.7-.1-1.48-.04-2.17.08-1.67.89-2.62,1.6-3.19,3.47-.05.17-.1.34-.13.52-.04.17-.06.35-.08.53-.02.18-.03.35-.03.53,0,.18,0,.36.02.53.02.18.04.35.08.53.03.17.08.35.13.52.05.17.11.34.18.5.07.16.14.33.23.48.67,1.24,1.84,2.12,3.19,2.49.9.25,1.88.17,2.79,0,1.56-.87,2.75-1.86,3.21-3.66.04-.17.08-.34.11-.52.03-.17.05-.35.05-.52,0-.18,0-.35,0-.53,0-.18-.03-.35-.05-.53-.03-.17-.06-.35-.11-.52Z"/>
    <path class="cls-1" d="m164.96,471.37c-.09-.15-.18-.3-.28-.44-.1-.14-.21-.28-.32-.41-.11-.13-.23-.26-.36-.38-.13-.12-.26-.23-.4-.34s-.28-.21-.43-.3c-.15-.09-.3-.18-.45-.26-.16-.08-.32-.15-.48-.21-.62-.23-1.3-.29-1.96-.36-1.74.5-3.05,1.08-4.01,2.71-.09.16-.18.32-.25.48-.08.16-.15.33-.21.5-.06.17-.11.35-.15.52-.04.18-.08.35-.1.53s-.04.36-.05.54c0,.18,0,.36,0,.54.01.18.03.36.06.54.03.18.07.36.12.53.38,1.38,1.31,2.45,2.57,3.11.86.45,1.81.63,2.77.65,1.73-.64,3.08-1.25,3.93-2.98.68-1.39.84-3.08.22-4.52-.07-.16-.15-.32-.23-.47Z"/>
    <path class="cls-1" d="m268.04,468.94c-.08-.56-.19-1.11-.33-1.65-.14-.55-.3-1.08-.49-1.61-.19-.53-.41-1.05-.66-1.55-.24-.51-.51-1-.81-1.48-.3-.48-.61-.94-.96-1.39-.34-.45-.71-.87-1.09-1.28-.39-.41-.79-.8-1.22-1.16-3.57-3.11-7.49-3.76-12.05-3.66.02-5.28-1.06-9.71-4.98-13.56-3.04-2.99-7.01-4.64-11.28-4.55-.84.02-1.69.1-2.53.17-4.69,1.09-8.75,3.28-11.34,7.53-1.79,2.95-2.58,6.5-2.79,9.91-5.44.51-10.05,1.82-13.73,6.24-2.83,3.4-4.14,7.58-3.71,12,.43,4.42,2.59,8.65,6.09,11.42,3.29,2.61,7.21,3.84,11.38,3.35,1.11,5.29,2.96,10.12,7.76,13.2,3.32,2.13,7.36,2.68,11.23,2.38,4.27-.68,7.84-2.59,10.48-6.11,2.09-2.78,3.01-5.8,3.18-9.23,5.36-.25,9.64-.76,13.51-4.94,3.16-3.42,4.72-7.7,4.48-12.35-.02-.56-.08-1.12-.16-1.68Zm-44.2,2.53c-.02.25-.05.49-.1.73-.04.24-.1.48-.17.72-.07.24-.15.47-.24.7-1.05,2.62-3.1,3.92-5.6,4.95-1.49.26-2.71.25-4.14-.29-1.79-.68-3.07-1.96-3.8-3.72-.8-1.92-.77-4.17.01-6.09,1.05-2.57,2.74-3.68,5.22-4.68,1.27-.07,2.47-.13,3.7.26,1.96.62,3.62,1.95,4.49,3.83.1.23.19.46.27.69.08.23.14.47.2.71.05.24.1.48.13.73.03.25.05.49.05.74,0,.25,0,.49-.02.74Zm16.8,19.09c-1.14,2.13-2.81,3.1-5.03,3.81-1.49-.02-2.91-.08-4.31-.65-1.94-.79-3.54-2.37-4.27-4.34-.09-.24-.16-.48-.22-.72-.06-.24-.11-.49-.14-.74-.04-.25-.06-.5-.07-.75,0-.25,0-.5.01-.75.02-.25.04-.5.09-.75.04-.25.1-.49.16-.74.07-.24.14-.48.24-.72.09-.23.19-.46.31-.69,1.12-2.2,2.96-3.35,5.22-4.14,1.48-.07,2.83-.02,4.2.61,1.92.89,3.52,2.55,4.23,4.56.69,1.98.59,4.14-.41,6Zm.57-34.12c-.86,2-2.49,3.4-4.45,4.23-1.31.29-2.65.42-3.98.18-.26-.05-.51-.11-.77-.18-.25-.07-.5-.16-.74-.26-.24-.1-.48-.21-.71-.34-.23-.12-.46-.26-.67-.41-.22-.15-.43-.31-.63-.48-.2-.17-.39-.35-.58-.54-.18-.19-.35-.39-.52-.6-.16-.21-.31-.42-.45-.65-.13-.21-.26-.43-.37-.66-.11-.23-.21-.46-.3-.69-.09-.24-.16-.48-.22-.72-.06-.24-.11-.49-.15-.74-.04-.25-.06-.5-.07-.75-.01-.25,0-.5,0-.75.02-.25.04-.5.09-.75.04-.25.1-.49.16-.74.64-2.33,2.35-4.05,4.41-5.19,1.8-.15,3.8-.4,5.53.28,1.98.78,3.54,2.24,4.36,4.22.73,1.76.8,3.76.05,5.53Zm16.97,18.7c-1.26,2.41-3.05,3.3-5.53,4.09-.78.02-1.59-.13-2.33-.37-2.13-.69-3.98-1.99-5.01-4.01-.91-1.76-1.09-3.86-.39-5.73.99-2.65,3.01-4.14,5.47-5.32,1.57-.06,2.99-.05,4.43.63,1.89.9,3.24,2.47,3.87,4.47.64,2.03.48,4.35-.51,6.23Z"/>
  </g>
  <text class="cls-2" transform="translate(565.86 445.23)"><tspan x="0" y="0">ТароЛавка</tspan></text>
</svg>