<?xml version="1.0" encoding="UTF-8"?>
<svg id="OBJECTS" xmlns="http://www.w3.org/2000/svg" viewBox="0 0 500 500">
  <defs>
    <style>
      .cls-1 {
        fill: #5e6584;
      }

      .cls-1, .cls-2 {
        stroke-width: 0px;
      }

      .cls-2 {
        fill: #fff;
      }
    </style>
  </defs>
  <g>
    <polygon class="cls-2" points="467.12 237.49 267.64 252.02 266.64 252.09 252.04 452.57 237.51 252.37 237.48 252.09 234.58 251.88 37 237.49 237.48 222.93 237.51 222.69 237.55 221.97 252.04 22.42 266.57 222 266.64 222.93 467.12 237.49"/>
    <g>
      <polygon class="cls-2" points="467.12 237.49 267.64 252.02 252.04 237.49 467.12 237.49"/>
      <polygon class="cls-2" points="252.04 237.49 252.04 452.57 237.48 252.09 252.04 237.49"/>
      <polygon class="cls-2" points="252.04 237.49 37 237.49 237.48 222.93 237.51 222.69 252.04 237.49"/>
      <polygon class="cls-2" points="266.57 222 252.04 237.49 252.04 22.42 266.57 222"/>
    </g>
  </g>
  <g>
    <polygon class="cls-2" points="386.09 133.3 453.52 128.39 386.09 123.49 381.18 56.05 376.28 123.49 308.84 128.39 376.28 133.3 381.18 200.74 386.09 133.3"/>
    <polygon class="cls-2" points="125.66 365.01 193.72 360.06 125.66 355.11 120.71 287.05 115.76 355.11 47.7 360.06 115.76 365.01 120.71 433.07 125.66 365.01"/>
  </g>
  <g>
    <g>
      <line class="cls-2" x1="215.97" y1="207.63" x2="153.33" y2="144.99"/>
      <path class="cls-1" d="m215.97,207.63c-20.28-19.85-42.8-42.36-62.65-62.65,20.28,19.85,42.8,42.36,62.65,62.65h0Z"/>
    </g>
    <g>
      <line class="cls-2" x1="284.45" y1="207.63" x2="347.1" y2="144.99"/>
      <path class="cls-1" d="m284.45,207.63c19.85-20.28,42.36-42.8,62.65-62.65-19.85,20.28-42.36,42.8-62.65,62.65h0Z"/>
    </g>
    <g>
      <line class="cls-2" x1="284.45" y1="269.21" x2="347.1" y2="331.86"/>
      <path class="cls-1" d="m284.45,269.21c20.28,19.85,42.8,42.36,62.65,62.65-20.28-19.85-42.8-42.36-62.65-62.65h0Z"/>
    </g>
    <g>
      <line class="cls-2" x1="215.97" y1="269.21" x2="153.33" y2="331.86"/>
      <path class="cls-1" d="m215.97,269.21c-19.85,20.28-42.36,42.8-62.65,62.65,19.85-20.28,42.36-42.8,62.65-62.65h0Z"/>
    </g>
  </g>
</svg>